<mxfile modified="2023-03-15T22:23:56.903Z" host="Electron" agent="5.0 (Windows NT 10.0; Win64; x64) AppleWebKit/537.36 (KHTML, like Gecko) draw.io/20.3.0 Chrome/104.0.5112.114 Electron/20.1.3 Safari/537.36" etag="wqMTJtWUNn4bqC-eDaTv" compressed="false" version="20.3.0" type="device">
  <diagram name="Privacy/Database Encrypted Columns to address PII + Reporting Risks" id="XWe0NgTvfXldY3eJwkOd">
    <mxGraphModel dx="782" dy="517" grid="1" gridSize="10" guides="1" tooltips="1" connect="1" arrows="1" fold="1" page="1" pageScale="1" pageWidth="827" pageHeight="1169" math="0" shadow="0">
      <root>
        <mxCell id="fuWN3s99KNgWF3A_jOTt-0" />
        <mxCell id="fuWN3s99KNgWF3A_jOTt-1" value="Diagram" parent="fuWN3s99KNgWF3A_jOTt-0" />
        <mxCell id="fuWN3s99KNgWF3A_jOTt-83" value="&lt;table border=&quot;1&quot; width=&quot;100%&quot; cellpadding=&quot;4&quot; style=&quot;width: 100% ; height: 100% ; border-collapse: collapse&quot;&gt;&lt;tbody&gt;&lt;tr style=&quot;background-color: #a7c942 ; color: #ffffff ; border: 1px solid #98bf21&quot;&gt;&lt;th align=&quot;left&quot; style=&quot;background-color: rgb(0 , 102 , 204)&quot;&gt;ID&lt;/th&gt;&lt;td style=&quot;background-color: rgb(0 , 102 , 204)&quot;&gt;&lt;b&gt;NationalID&lt;/b&gt;&lt;/td&gt;&lt;th align=&quot;left&quot; style=&quot;background-color: rgb(0 , 102 , 204)&quot;&gt;GivenNames&lt;/th&gt;&lt;th align=&quot;left&quot; style=&quot;background-color: rgb(0 , 102 , 204)&quot;&gt;SurNames&lt;/th&gt;&lt;td style=&quot;background-color: rgb(0 , 102 , 204)&quot;&gt;&lt;b&gt;DOB&lt;/b&gt;&lt;/td&gt;&lt;td style=&quot;background-color: rgb(0 , 102 , 204)&quot;&gt;Year Born&lt;/td&gt;&lt;td style=&quot;background-color: rgb(0 , 102 , 204)&quot;&gt;Gender&lt;/td&gt;&lt;td style=&quot;background-color: rgb(0 , 102 , 204)&quot;&gt;&lt;b&gt;NationalityID&lt;/b&gt;&lt;/td&gt;&lt;/tr&gt;&lt;tr style=&quot;border: 1px solid #98bf21&quot;&gt;&lt;td style=&quot;background-color: rgb(230 , 255 , 204)&quot;&gt;5f449,..34dfa&lt;/td&gt;&lt;td style=&quot;background-color: rgb(255 , 204 , 204)&quot;&gt;XXX&lt;/td&gt;&lt;td style=&quot;background-color: rgb(255 , 204 , 204)&quot;&gt;XXX&lt;/td&gt;&lt;td style=&quot;background-color: rgb(255 , 204 , 204)&quot;&gt;XXX&lt;/td&gt;&lt;td style=&quot;background-color: rgb(255 , 204 , 204)&quot;&gt;XXX&lt;/td&gt;&lt;td style=&quot;background-color: rgb(230 , 255 , 204)&quot;&gt;1980&lt;/td&gt;&lt;td style=&quot;background-color: rgb(230 , 255 , 204)&quot;&gt;F&lt;/td&gt;&lt;td style=&quot;background-color: rgb(230 , 255 , 204)&quot;&gt;554&lt;/td&gt;&lt;/tr&gt;&lt;/tbody&gt;&lt;/table&gt;" style="text;html=1;strokeColor=#c0c0c0;fillColor=#ffffff;overflow=fill;rounded=0;" parent="fuWN3s99KNgWF3A_jOTt-1" vertex="1">
          <mxGeometry x="120" y="350" width="560" height="50" as="geometry" />
        </mxCell>
        <mxCell id="fuWN3s99KNgWF3A_jOTt-85" value="As per ISO/IEC 5218:2004" style="shape=note;whiteSpace=wrap;html=1;size=14;verticalAlign=top;align=left;spacingTop=-6;fillColor=none;" parent="fuWN3s99KNgWF3A_jOTt-1" vertex="1">
          <mxGeometry x="540" y="410" width="60" height="70" as="geometry" />
        </mxCell>
        <mxCell id="fuWN3s99KNgWF3A_jOTt-86" value="As per ISO/IEC&amp;nbsp;&lt;br&gt;4217&amp;nbsp;" style="shape=note;whiteSpace=wrap;html=1;size=14;verticalAlign=top;align=left;spacingTop=-6;fillColor=none;" parent="fuWN3s99KNgWF3A_jOTt-1" vertex="1">
          <mxGeometry x="610" y="410" width="60" height="70" as="geometry" />
        </mxCell>
        <mxCell id="fuWN3s99KNgWF3A_jOTt-87" value="As per ISO&lt;br&gt;8601" style="shape=note;whiteSpace=wrap;html=1;size=14;verticalAlign=top;align=left;spacingTop=-6;fillColor=none;" parent="fuWN3s99KNgWF3A_jOTt-1" vertex="1">
          <mxGeometry x="430" y="410" width="50" height="70" as="geometry" />
        </mxCell>
        <mxCell id="fuWN3s99KNgWF3A_jOTt-88" value="&lt;span style=&quot;color: rgb(51 , 51 , 51) ; background-color: rgb(255 , 255 , 255)&quot;&gt;&lt;font style=&quot;font-size: 12px&quot;&gt;ISO/IEC 9834-8:2008&lt;/font&gt;&lt;/span&gt;" style="shape=note;whiteSpace=wrap;html=1;size=14;verticalAlign=top;align=left;spacingTop=-6;fillColor=none;" parent="fuWN3s99KNgWF3A_jOTt-1" vertex="1">
          <mxGeometry x="140" y="410" width="60" height="70" as="geometry" />
        </mxCell>
        <mxCell id="fuWN3s99KNgWF3A_jOTt-89" value="&lt;span style=&quot;color: rgb(51 , 51 , 51) ; background-color: rgb(255 , 255 , 255)&quot;&gt;&lt;font style=&quot;font-size: 12px&quot;&gt;As per&lt;br&gt;&lt;/font&gt;&lt;/span&gt;&lt;a href=&quot;https://www.iso.org/schema/isosts/&quot;&gt;I&lt;/a&gt;SOTS&lt;span style=&quot;color: rgb(51 , 51 , 51) ; background-color: rgb(255 , 255 , 255)&quot;&gt;&lt;font style=&quot;font-size: 12px&quot;&gt;&lt;br&gt;&lt;/font&gt;&lt;/span&gt;" style="shape=note;whiteSpace=wrap;html=1;size=14;verticalAlign=top;align=left;spacingTop=-6;fillColor=none;" parent="fuWN3s99KNgWF3A_jOTt-1" vertex="1">
          <mxGeometry x="330" y="410" width="60" height="70" as="geometry" />
        </mxCell>
        <mxCell id="fuWN3s99KNgWF3A_jOTt-69" value="Title/Diagram" parent="fuWN3s99KNgWF3A_jOTt-0" visible="0" />
        <mxCell id="fuWN3s99KNgWF3A_jOTt-70" value="&lt;font style=&quot;font-size: 12px&quot;&gt;&lt;span style=&quot;font-size: 12px&quot;&gt;Diagram: Base System Logical Module -&amp;nbsp;&lt;/span&gt;Privacy- PI/PII Persistence addressing Reporting requirements&lt;/font&gt;" style="text;strokeColor=none;fillColor=none;html=1;fontSize=24;fontStyle=2;verticalAlign=middle;align=left;shadow=0;glass=0;comic=0;opacity=30;fontColor=#808080;" parent="fuWN3s99KNgWF3A_jOTt-69" vertex="1">
          <mxGeometry x="120" y="500" width="520" height="20" as="geometry" />
        </mxCell>
        <mxCell id="fuWN3s99KNgWF3A_jOTt-74" value="Context/Legend" parent="fuWN3s99KNgWF3A_jOTt-0" />
      </root>
    </mxGraphModel>
  </diagram>
</mxfile>
